<svg width="48" height="48" viewBox="0 0 48 48" fill="none" xmlns="http://www.w3.org/2000/svg">
<g clip-path="url(#clip0_1867_2053)">
<path d="M38.0009 21.9975L15.6609 21.9975L25.4209 12.2375C26.2009 11.4575 26.2009 10.1775 25.4209 9.3975C24.6409 8.6175 23.3809 8.6175 22.6009 9.3975L9.42094 22.5775C8.64094 23.3575 8.64094 24.6175 9.42094 25.3975L22.6009 38.5775C23.3809 39.3575 24.6409 39.3575 25.4209 38.5775C26.2009 37.7975 26.2009 36.5375 25.4209 35.7575L15.6609 25.9975L38.0009 25.9975C39.1009 25.9975 40.0009 25.0975 40.0009 23.9975C40.0009 22.8975 39.1009 21.9975 38.0009 21.9975Z" fill="#F95335"/>
</g>
<defs>
<clipPath id="clip0_1867_2053">
<rect width="48" height="48" fill="white"/>
</clipPath>
</defs>
</svg>
