<svg width="48" height="48" viewBox="0 0 48 48" fill="none" xmlns="http://www.w3.org/2000/svg">
<g clip-path="url(#clip0_1867_2050)">
<path d="M9.99906 26.0025L32.3391 26.0025L22.5791 35.7625C21.7991 36.5425 21.7991 37.8225 22.5791 38.6025C23.3591 39.3825 24.6191 39.3825 25.3991 38.6025L38.5791 25.4225C39.3591 24.6425 39.3591 23.3825 38.5791 22.6025L25.3991 9.42249C24.6191 8.64249 23.3591 8.64249 22.5791 9.42249C21.7991 10.2025 21.7991 11.4625 22.5791 12.2425L32.3391 22.0025L9.99906 22.0025C8.89906 22.0025 7.99906 22.9025 7.99906 24.0025C7.99906 25.1025 8.89906 26.0025 9.99906 26.0025Z" fill="#F95335"/>
</g>
<defs>
<clipPath id="clip0_1867_2050">
<rect width="48" height="48" fill="white" transform="translate(48 48) rotate(-180)"/>
</clipPath>
</defs>
</svg>
